#N canvas 0 22 1671 1006 12;
#X obj 110 113 vu 10 120 empty empty -1 -8 0 10 -1 -262144 0 0;
#X obj 134 863 env~;
#X obj 123 113 vu 10 120 empty empty -1 -8 0 10 -1 -262144 1 0;
#X obj 134 895 - 100;
#X obj 180 864 env~;
#X obj 180 896 - 100;
#X obj 81 820 *~;
#X obj 68 786 vline~;
#X obj 82 758 pack 0 0;
#X msg 133 727 10;
#X obj 248 847 *~;
#X obj 235 813 vline~;
#X obj 249 785 pack 0 0;
#X msg 301 736 10;
#X obj 871 236 inlet~;
#X obj 927 235 inlet~;
#X obj 832 678 outlet~;
#X obj 904 678 outlet~;
#X obj 267 895 *~;
#X obj 59 887 *~;
#X obj 105 240 tgl 35 0 empty empty empty 17 7 0 10 -262144 -258113
-1 0 1;
#X obj 144 941 sel 1 0;
#X msg 133 992 0;
#X msg 169 990 1;
#X floatatom 149 1050 5 0 0 0 - - -;
#X obj 149 1149 vline~;
#X obj 149 1103 pack 0 0;
#X obj 1039 206 inlet;
#X obj 577 22 loadbang;
#X obj 571 139 pack 0 0;
#X msg 618 112 20;
#X obj 571 172 line;
#X obj 147 250 bng 15 250 50 0 empty empty empty 17 7 0 10 -262144
-1 -1;
#X msg 701 89 1;
#X obj 301 44 inlet;
#X floatatom 157 645 5 0 0 0 - - -;
#X msg 559 76 1;
#X floatatom 991 641 10 0 0 0 - - -;
#X obj 324 434 pow;
#X obj 146 113 vsl 15 120 0 1 0 0 empty empty empty 0 -9 0 10 -262144
-1 -1 11900 1;
#X floatatom 317 500 5 0 0 0 - - -;
#X msg 368 372 2;
#X msg 196 1076 50;
#X obj 358 45 inlet;
#X obj 358 69 / 127;
#X obj 1026 241 sel 1;
#X obj 1028 284 bng 15 250 50 0 empty empty empty 17 7 0 10 -262144
-1 -1;
#X connect 1 0 3 0;
#X connect 3 0 0 0;
#X connect 4 0 5 0;
#X connect 5 0 2 0;
#X connect 6 0 19 0;
#X connect 7 0 6 1;
#X connect 8 0 7 0;
#X connect 9 0 8 1;
#X connect 10 0 18 0;
#X connect 11 0 10 1;
#X connect 12 0 11 0;
#X connect 13 0 12 1;
#X connect 14 0 6 0;
#X connect 15 0 10 0;
#X connect 18 0 4 0;
#X connect 18 0 17 0;
#X connect 19 0 1 0;
#X connect 19 0 16 0;
#X connect 20 0 21 0;
#X connect 21 0 22 0;
#X connect 21 1 23 0;
#X connect 22 0 24 0;
#X connect 23 0 24 0;
#X connect 24 0 26 0;
#X connect 24 0 42 0;
#X connect 25 0 19 1;
#X connect 25 0 18 1;
#X connect 26 0 25 0;
#X connect 27 0 45 0;
#X connect 28 0 36 0;
#X connect 28 0 33 0;
#X connect 28 0 41 0;
#X connect 29 0 31 0;
#X connect 30 0 29 1;
#X connect 31 0 39 0;
#X connect 32 0 36 0;
#X connect 33 0 24 0;
#X connect 34 0 39 0;
#X connect 35 0 8 0;
#X connect 35 0 12 0;
#X connect 35 0 13 0;
#X connect 35 0 9 0;
#X connect 36 0 29 0;
#X connect 36 0 30 0;
#X connect 37 0 8 0;
#X connect 37 0 12 0;
#X connect 38 0 40 0;
#X connect 39 0 38 0;
#X connect 40 0 35 0;
#X connect 41 0 38 1;
#X connect 42 0 26 1;
#X connect 43 0 44 0;
#X connect 44 0 39 0;
#X connect 45 0 46 0;
#X connect 46 0 20 0;
#X coords 0 -1 1 1 70 180 2 100 100;
