#N canvas 451 0 1229 1028 12;
#N canvas 0 22 450 278 (subpatch) 0;
#X array sample1 12554 float 2;
#X coords 0 1 12554 -1 100 100 1 0 0;
#X restore 128 131 graph;
#N canvas 0 22 450 278 (subpatch) 0;
#X array sample2 37550 float 2;
#X coords 0 1 37550 -1 100 100 1 0 0;
#X restore 241 131 graph;
#N canvas 0 22 450 278 (subpatch) 0;
#X array sample5 22051 float 2;
#X coords 0 1 22051 -1 100 100 1 0 0;
#X restore 128 254 graph;
#N canvas 0 22 450 278 (subpatch) 0;
#X array sample6 22051 float 2;
#X coords 0 1 22051 -1 100 100 1 0 0;
#X restore 241 254 graph;
#X obj 213 112 bng 15 250 50 0 empty empty empty 17 7 0 10 -262144
-1 -1;
#X obj 101 739 openpanel;
#X obj 101 806 soundfiler;
#X msg 101 773 read -resize \$1 sample1;
#X obj 326 112 bng 15 250 50 0 empty empty empty 17 7 0 10 -262144
-1 -1;
#X obj 283 737 openpanel;
#X obj 283 804 soundfiler;
#X obj 103 878 openpanel;
#X obj 103 945 soundfiler;
#X obj 285 876 openpanel;
#X obj 285 943 soundfiler;
#X msg 1111 778 bang;
#X obj 1111 812 tabplay~ sample1;
#X msg 1159 779 0 1;
#X msg 1239 778 bang;
#X msg 1287 779 0 1;
#X msg 1365 777 bang;
#X msg 1413 778 0 1;
#X msg 1492 777 bang;
#X msg 1540 778 0 1;
#X obj 1239 812 tabplay~ sample2;
#X obj 1365 811 tabplay~ sample3;
#X obj 1492 811 tabplay~ sample4;
#N canvas 0 22 450 278 (subpatch) 0;
#X array sample9 22051 float 2;
#X coords 0 1 22051 -1 100 100 1 0 0;
#X restore 128 377 graph;
#N canvas 0 22 450 278 (subpatch) 0;
#X array sample10 22051 float 2;
#X coords 0 1 22051 -1 100 100 1 0 0;
#X restore 241 377 graph;
#N canvas 0 22 450 278 (subpatch) 0;
#X array sample13 22051 float 2;
#X coords 0 1 22051 -1 100 100 1 0 0;
#X restore 128 501 graph;
#N canvas 0 22 450 278 (subpatch) 0;
#X array sample14 22051 float 2;
#X coords 0 1 22051 -1 100 100 1 0 0;
#X restore 241 501 graph;
#N canvas 0 22 450 278 (subpatch) 0;
#X array sample3 5276 float 2;
#X coords 0 1 5276 -1 100 100 1 0 0;
#X restore 357 131 graph;
#N canvas 0 22 450 278 (subpatch) 0;
#X array sample4 7210 float 2;
#X coords 0 1 7210 -1 100 100 1 0 0;
#X restore 471 131 graph;
#N canvas 0 22 450 278 (subpatch) 0;
#X array sample7 22051 float 2;
#X coords 0 1 22051 -1 100 100 1 0 0;
#X restore 357 254 graph;
#N canvas 0 22 450 278 (subpatch) 0;
#X array sample8 22051 float 2;
#X coords 0 1 22051 -1 100 100 1 0 0;
#X restore 470 254 graph;
#N canvas 0 22 450 278 (subpatch) 0;
#X array sample11 22051 float 2;
#X coords 0 1 22051 -1 100 100 1 0 0;
#X restore 357 377 graph;
#N canvas 0 22 450 278 (subpatch) 0;
#X array sample12 22051 float 2;
#X coords 0 1 22051 -1 100 100 1 0 0;
#X restore 470 377 graph;
#N canvas 0 22 450 278 (subpatch) 0;
#X array sample15 22051 float 2;
#X coords 0 1 22051 -1 100 100 1 0 0;
#X restore 357 501 graph;
#N canvas 0 22 450 278 (subpatch) 0;
#X array sample16 22051 float 2;
#X coords 0 1 22051 -1 100 100 1 0 0;
#X restore 470 501 graph;
#X obj 103 980 bng 15 250 50 0 empty empty empty 17 7 0 10 -262144
-1 -1;
#X obj 103 1010 openpanel;
#X obj 103 1077 soundfiler;
#X obj 285 978 bng 15 250 50 0 empty empty empty 17 7 0 10 -262144
-1 -1;
#X obj 285 1008 openpanel;
#X obj 285 1075 soundfiler;
#X obj 105 1119 bng 15 250 50 0 empty empty empty 17 7 0 10 -262144
-1 -1;
#X obj 105 1149 openpanel;
#X obj 105 1216 soundfiler;
#X obj 287 1117 bng 15 250 50 0 empty empty empty 17 7 0 10 -262144
-1 -1;
#X obj 287 1147 openpanel;
#X obj 287 1214 soundfiler;
#X obj 442 112 bng 15 250 50 0 empty empty empty 17 7 0 10 -262144
-1 -1;
#X obj 468 736 openpanel;
#X obj 468 803 soundfiler;
#X obj 555 112 bng 15 250 50 0 empty empty empty 17 7 0 10 -262144
-1 -1;
#X obj 650 734 openpanel;
#X obj 650 801 soundfiler;
#X obj 470 875 openpanel;
#X obj 470 942 soundfiler;
#X obj 652 873 openpanel;
#X obj 652 940 soundfiler;
#X obj 470 977 bng 15 250 50 0 empty empty empty 17 7 0 10 -262144
-1 -1;
#X obj 470 1007 openpanel;
#X obj 470 1074 soundfiler;
#X obj 652 975 bng 15 250 50 0 empty empty empty 17 7 0 10 -262144
-1 -1;
#X obj 652 1005 openpanel;
#X obj 652 1072 soundfiler;
#X obj 472 1116 bng 15 250 50 0 empty empty empty 17 7 0 10 -262144
-1 -1;
#X obj 472 1146 openpanel;
#X obj 472 1213 soundfiler;
#X obj 654 1114 bng 15 250 50 0 empty empty empty 17 7 0 10 -262144
-1 -1;
#X obj 654 1144 openpanel;
#X obj 654 1211 soundfiler;
#X msg 1112 894 bang;
#X msg 1160 895 0 1;
#X msg 1240 894 bang;
#X msg 1288 895 0 1;
#X msg 1366 893 bang;
#X msg 1414 894 0 1;
#X msg 1493 893 bang;
#X msg 1541 894 0 1;
#X msg 1109 1017 bang;
#X msg 1157 1018 0 1;
#X msg 1237 1017 bang;
#X msg 1285 1018 0 1;
#X msg 1363 1016 bang;
#X msg 1411 1017 0 1;
#X msg 1490 1016 bang;
#X msg 1538 1017 0 1;
#X msg 1108 1136 bang;
#X msg 1156 1137 0 1;
#X msg 1236 1136 bang;
#X msg 1284 1137 0 1;
#X msg 1362 1135 bang;
#X msg 1410 1136 0 1;
#X msg 1489 1135 bang;
#X msg 1537 1136 0 1;
#X msg 283 771 read -resize \$1 sample2;
#X msg 468 770 read -resize \$1 sample3;
#X msg 650 768 read -resize \$1 sample4;
#X msg 103 912 read -resize \$1 sample5;
#X msg 285 910 read -resize \$1 sample6;
#X msg 470 909 read -resize \$1 sample7;
#X msg 652 907 read -resize \$1 sample8;
#X msg 103 1044 read -resize \$1 sample9;
#X msg 285 1042 read -resize \$1 sample10;
#X msg 470 1041 read -resize \$1 sample11;
#X msg 652 1039 read -resize \$1 sample12;
#X msg 105 1183 read -resize \$1 sample13;
#X msg 287 1181 read -resize \$1 sample14;
#X msg 472 1180 read -resize \$1 sample15;
#X msg 654 1178 read -resize \$1 sample16;
#X obj 1112 928 tabplay~ sample5;
#X obj 1240 928 tabplay~ sample6;
#X obj 1366 927 tabplay~ sample7;
#X obj 1493 927 tabplay~ sample8;
#X obj 1109 1051 tabplay~ sample9;
#X obj 1237 1051 tabplay~ sample10;
#X obj 1363 1050 tabplay~ sample11;
#X obj 1490 1050 tabplay~ sample12;
#X obj 1108 1170 tabplay~ sample13;
#X obj 1236 1170 tabplay~ sample14;
#X obj 1362 1169 tabplay~ sample15;
#X obj 1489 1169 tabplay~ sample16;
#X obj 213 235 bng 15 250 50 0 empty empty empty 17 7 0 10 -262144
-1 -1;
#X obj 326 235 bng 15 250 50 0 empty empty empty 17 7 0 10 -262144
-1 -1;
#X obj 442 235 bng 15 250 50 0 empty empty empty 17 7 0 10 -262144
-1 -1;
#X obj 555 235 bng 15 250 50 0 empty empty empty 17 7 0 10 -262144
-1 -1;
#X obj 213 358 bng 15 250 50 0 empty empty empty 17 7 0 10 -262144
-1 -1;
#X obj 326 358 bng 15 250 50 0 empty empty empty 17 7 0 10 -262144
-1 -1;
#X obj 442 358 bng 15 250 50 0 empty empty empty 17 7 0 10 -262144
-1 -1;
#X obj 554 358 bng 15 250 50 0 empty empty empty 17 7 0 10 -262144
-1 -1;
#X obj 213 482 bng 15 250 50 0 empty empty empty 17 7 0 10 -262144
-1 -1;
#X obj 326 482 bng 15 250 50 0 empty empty empty 17 7 0 10 -262144
-1 -1;
#X obj 442 482 bng 15 250 50 0 empty empty empty 17 7 0 10 -262144
-1 -1;
#X obj 554 482 bng 15 250 50 0 empty empty empty 17 7 0 10 -262144
-1 -1;
#X obj 942 644 inlet;
#X obj 992 644 inlet;
#X obj 1041 645 inlet;
#X obj 1091 645 inlet;
#X obj 1140 643 inlet;
#X obj 1190 643 inlet;
#X obj 1237 643 inlet;
#X obj 1287 643 inlet;
#X obj 1341 644 inlet;
#X obj 1546 641 inlet;
#X obj 1395 643 inlet;
#X obj 1445 643 inlet;
#X obj 1494 641 inlet;
#X obj 1594 641 inlet;
#X obj 1645 642 inlet;
#X obj 1695 642 inlet;
#X obj 807 1296 outlet~;
#X obj 876 1296 outlet~;
#X obj 945 1296 outlet~;
#X obj 1014 1296 outlet~;
#X obj 1080 1295 outlet~;
#X obj 1149 1295 outlet~;
#X obj 1218 1295 outlet~;
#X obj 1287 1295 outlet~;
#X obj 1359 1295 outlet~;
#X obj 1428 1295 outlet~;
#X obj 1497 1295 outlet~;
#X obj 1566 1295 outlet~;
#X obj 1632 1294 outlet~;
#X obj 1701 1294 outlet~;
#X obj 1770 1294 outlet~;
#X obj 1839 1294 outlet~;
#X connect 4 0 5 0;
#X connect 5 0 7 0;
#X connect 7 0 6 0;
#X connect 8 0 9 0;
#X connect 9 0 97 0;
#X connect 11 0 100 0;
#X connect 13 0 101 0;
#X connect 15 0 16 0;
#X connect 16 0 152 0;
#X connect 17 0 16 0;
#X connect 18 0 24 0;
#X connect 19 0 24 0;
#X connect 20 0 25 0;
#X connect 21 0 25 0;
#X connect 22 0 26 0;
#X connect 23 0 26 0;
#X connect 24 0 153 0;
#X connect 25 0 154 0;
#X connect 26 0 155 0;
#X connect 39 0 40 0;
#X connect 40 0 104 0;
#X connect 42 0 43 0;
#X connect 43 0 105 0;
#X connect 45 0 46 0;
#X connect 46 0 108 0;
#X connect 48 0 49 0;
#X connect 49 0 109 0;
#X connect 51 0 52 0;
#X connect 52 0 98 0;
#X connect 54 0 55 0;
#X connect 55 0 99 0;
#X connect 57 0 102 0;
#X connect 59 0 103 0;
#X connect 61 0 62 0;
#X connect 62 0 106 0;
#X connect 64 0 65 0;
#X connect 65 0 107 0;
#X connect 67 0 68 0;
#X connect 68 0 110 0;
#X connect 70 0 71 0;
#X connect 71 0 111 0;
#X connect 73 0 112 0;
#X connect 74 0 112 0;
#X connect 75 0 113 0;
#X connect 76 0 113 0;
#X connect 77 0 114 0;
#X connect 78 0 114 0;
#X connect 79 0 115 0;
#X connect 80 0 115 0;
#X connect 81 0 116 0;
#X connect 82 0 116 0;
#X connect 83 0 117 0;
#X connect 84 0 117 0;
#X connect 85 0 118 0;
#X connect 86 0 118 0;
#X connect 87 0 119 0;
#X connect 88 0 119 0;
#X connect 89 0 120 0;
#X connect 90 0 120 0;
#X connect 91 0 121 0;
#X connect 92 0 121 0;
#X connect 93 0 122 0;
#X connect 94 0 122 0;
#X connect 95 0 123 0;
#X connect 96 0 123 0;
#X connect 97 0 10 0;
#X connect 98 0 53 0;
#X connect 99 0 56 0;
#X connect 100 0 12 0;
#X connect 101 0 14 0;
#X connect 102 0 58 0;
#X connect 103 0 60 0;
#X connect 104 0 41 0;
#X connect 105 0 44 0;
#X connect 106 0 63 0;
#X connect 107 0 66 0;
#X connect 108 0 47 0;
#X connect 109 0 50 0;
#X connect 110 0 69 0;
#X connect 111 0 72 0;
#X connect 112 0 156 0;
#X connect 113 0 157 0;
#X connect 114 0 158 0;
#X connect 115 0 159 0;
#X connect 116 0 160 0;
#X connect 117 0 161 0;
#X connect 118 0 162 0;
#X connect 119 0 163 0;
#X connect 120 0 164 0;
#X connect 121 0 165 0;
#X connect 122 0 166 0;
#X connect 123 0 167 0;
#X connect 124 0 11 0;
#X connect 125 0 13 0;
#X connect 126 0 57 0;
#X connect 127 0 59 0;
#X connect 128 0 39 0;
#X connect 129 0 42 0;
#X connect 130 0 61 0;
#X connect 131 0 64 0;
#X connect 132 0 45 0;
#X connect 133 0 48 0;
#X connect 134 0 67 0;
#X connect 135 0 70 0;
#X connect 136 0 15 0;
#X connect 137 0 18 0;
#X connect 138 0 20 0;
#X connect 139 0 22 0;
#X connect 140 0 73 0;
#X connect 141 0 75 0;
#X connect 142 0 77 0;
#X connect 143 0 79 0;
#X connect 144 0 81 0;
#X connect 145 0 89 0;
#X connect 146 0 83 0;
#X connect 147 0 85 0;
#X connect 148 0 87 0;
#X connect 149 0 91 0;
#X connect 150 0 93 0;
#X connect 151 0 95 0;
#X coords 0 -1 1 1 500 520 2 100 100;
